# xmcd
#
# Track frame offsets: 
#        150
#        18811
#        36880
#        60465
#        74759
#        97994
#        118837
#        135988
#        175291
#        192865
#        214106
#        242079
#        258952
#        274311
#        286988
#        301950
#        321589
#
# Disc length: 4528 seconds
#
# Revision: 1
# Processed by: cddbd v1.5.2PL0 Copyright (c) Steve Scherf et al.
# Submitted via: ExactAudioCopy v1.0b3
#
DISCID=fc11ae11
DTITLE=Various Artist - The Blues and Salvation [CD1]
DYEAR=2014
DGENRE=Blues
TTITLE0=George Higgs - Who Told You Woman
TTITLE1=Brownie McGhee - Rainy Day
TTITLE2=Louisiana Red and Lefty Dizz - Going Train Blues
TTITLE3=George Higgs - Sweet Little Girl
TTITLE4=Louisiana Red - Walk All Over Georgia
TTITLE5=Rev. Gary Davis - If I Had My Way
TTITLE6=Jemima James - There`s Nothing Left To Say
TTITLE7=Sonny Terry and Brownie McGhee - Baby Please Don`t Go
TTITLE8=Rev. Gary Davis - Blues In E
TTITLE9=Rev. Gary Davis - Crrucifixion
TTITLE10=Rev. Gary Davis - Sermon
TTITLE11=The Wooten Singers - His Name Is Jesus
TTITLE12=Jemima James - Old Hippy
TTITLE13=Rev. Gary Davis - Come Down And See Me Sometime
TTITLE14=George Higgs - I Wonder What I Mean To You
TTITLE15=Jemima James - I Wish I`d Gone To Birmingham
TTITLE16=Rev. Gary Davis - Candy Man
EXTD=YEAR: 2014
EXTT0=
EXTT1=
EXTT2=
EXTT3=
EXTT4=
EXTT5=
EXTT6=
EXTT7=
EXTT8=
EXTT9=
EXTT10=
EXTT11=
EXTT12=
EXTT13=
EXTT14=
EXTT15=
EXTT16=
PLAYORDER=
